<svg width="84" height="32" viewBox="0 0 84 32" fill="none" xmlns="http://www.w3.org/2000/svg">
<rect width="84" height="32" fill="#1CBA6E"/>
<path d="M17.3892 15.776C18.2292 16.08 18.6492 16.672 18.6492 17.552C18.6492 18.424 18.4212 19.052 17.9652 19.436C17.5172 19.812 16.7932 20 15.7932 20H9.63717V11.6H15.5532C16.5532 11.6 17.2772 11.788 17.7252 12.164C18.1812 12.54 18.4092 13.168 18.4092 14.048C18.4092 14.912 18.0692 15.488 17.3892 15.776ZM15.1812 12.992H11.3652V15.2H15.1212C15.6972 15.2 16.0972 15.132 16.3212 14.996C16.5452 14.86 16.6572 14.58 16.6572 14.156C16.6572 13.708 16.5412 13.404 16.3092 13.244C16.0852 13.076 15.7092 12.992 15.1812 12.992ZM11.3652 18.596H15.4332C15.9532 18.596 16.3252 18.512 16.5492 18.344C16.7812 18.168 16.8972 17.864 16.8972 17.432C16.8972 17.024 16.7772 16.748 16.5372 16.604C16.3052 16.46 15.8892 16.388 15.2892 16.388H11.3652V18.596ZM23.5503 13.028H23.8503C24.6983 13.028 25.3743 13.276 25.8783 13.772C26.3823 14.268 26.6343 15.056 26.6343 16.136H25.0263C25.0263 14.976 24.4703 14.396 23.3583 14.396H23.1063C22.4023 14.396 21.8783 14.572 21.5343 14.924C21.1983 15.268 21.0303 15.84 21.0303 16.64V20H19.4223V13.148H20.8623V14.648C21.3343 13.568 22.2303 13.028 23.5503 13.028ZM30.6311 12.968H31.8791C33.0951 12.968 33.9591 13.216 34.4711 13.712C34.9911 14.208 35.2511 15.084 35.2511 16.34V20H33.6551V18.716C33.2231 19.692 32.2871 20.18 30.8471 20.18H30.4631C28.2551 20.18 27.1511 19.4 27.1511 17.84C27.1511 17.136 27.4031 16.664 27.9071 16.424C28.4111 16.184 29.2111 16.064 30.3071 16.064H33.6431C33.6111 15.392 33.4551 14.924 33.1751 14.66C32.9031 14.396 32.4151 14.264 31.7111 14.264H30.6071C29.4551 14.264 28.8791 14.652 28.8791 15.428H27.3191C27.3191 14.588 27.5871 13.968 28.1231 13.568C28.6671 13.168 29.5031 12.968 30.6311 12.968ZM30.4511 18.968H31.3631C32.1151 18.968 32.6751 18.812 33.0431 18.5C33.4111 18.18 33.6111 17.648 33.6431 16.904H30.4631C29.8311 16.904 29.3831 16.972 29.1191 17.108C28.8551 17.236 28.7231 17.48 28.7231 17.84C28.7231 18.592 29.2991 18.968 30.4511 18.968ZM40.9689 12.98H41.1849C42.3209 12.98 43.1369 13.232 43.6329 13.736C44.1289 14.24 44.3769 15.124 44.3769 16.388V20.012H42.7809V16.388C42.7809 15.628 42.6449 15.096 42.3729 14.792C42.1089 14.488 41.6009 14.336 40.8489 14.336H40.2489C39.4889 14.336 38.9249 14.512 38.5569 14.864C38.1969 15.208 38.0169 15.784 38.0169 16.592V20H36.4089V13.148H37.8489V14.648C38.3369 13.536 39.3769 12.98 40.9689 12.98ZM51.7627 14.288V11H53.3707V20H51.7627V18.872C51.2347 19.752 50.2867 20.192 48.9187 20.192H48.7027C47.5827 20.192 46.7547 19.924 46.2187 19.388C45.6907 18.852 45.4267 17.916 45.4267 16.58C45.4267 15.244 45.6907 14.308 46.2187 13.772C46.7547 13.236 47.5827 12.968 48.7027 12.968H48.9187C50.2867 12.968 51.2347 13.408 51.7627 14.288ZM49.0267 18.824H49.6027C50.3467 18.824 50.8907 18.652 51.2347 18.308C51.5867 17.956 51.7627 17.38 51.7627 16.58C51.7627 15.78 51.5867 15.208 51.2347 14.864C50.8907 14.512 50.3467 14.336 49.6027 14.336H49.0267C48.2827 14.336 47.7547 14.508 47.4427 14.852C47.1387 15.188 46.9867 15.764 46.9867 16.58C46.9867 17.396 47.1387 17.976 47.4427 18.32C47.7547 18.656 48.2827 18.824 49.0267 18.824ZM55.4565 12.296H55.1805C54.8605 12.296 54.6285 12.232 54.4845 12.104C54.3485 11.968 54.2805 11.744 54.2805 11.432C54.2805 11.128 54.3485 10.912 54.4845 10.784C54.6285 10.656 54.8605 10.592 55.1805 10.592H55.4565C55.7765 10.592 56.0085 10.656 56.1525 10.784C56.2965 10.912 56.3685 11.128 56.3685 11.432C56.3685 11.744 56.2965 11.968 56.1525 12.104C56.0085 12.232 55.7765 12.296 55.4565 12.296ZM56.1285 20H54.5205V13.148H56.1285V20ZM61.8433 12.98H62.0593C63.1953 12.98 64.0113 13.232 64.5073 13.736C65.0033 14.24 65.2513 15.124 65.2513 16.388V20.012H63.6553V16.388C63.6553 15.628 63.5193 15.096 63.2473 14.792C62.9833 14.488 62.4753 14.336 61.7233 14.336H61.1233C60.3633 14.336 59.7993 14.512 59.4313 14.864C59.0713 15.208 58.8913 15.784 58.8913 16.592V20H57.2833V13.148H58.7233V14.648C59.2113 13.536 60.2513 12.98 61.8433 12.98ZM72.6371 14.24V13.148H74.2451V19.328C74.2451 20.496 74.0011 21.296 73.5131 21.728C73.0251 22.168 72.2011 22.388 71.0411 22.388H66.7811V21.02H71.0411C71.6651 21.02 72.0851 20.9 72.3011 20.66C72.5251 20.428 72.6371 19.984 72.6371 19.328V18.632C72.1011 19.48 71.1491 19.904 69.7811 19.904H69.5651C68.4611 19.904 67.6411 19.644 67.1051 19.124C66.5691 18.604 66.3011 17.708 66.3011 16.436C66.3011 15.164 66.5691 14.268 67.1051 13.748C67.6411 13.228 68.4611 12.968 69.5651 12.968H69.7811C71.1491 12.968 72.1011 13.392 72.6371 14.24ZM69.9011 18.536H70.4651C71.2171 18.536 71.7651 18.372 72.1091 18.044C72.4611 17.708 72.6371 17.172 72.6371 16.436C72.6371 15.7 72.4611 15.168 72.1091 14.84C71.7651 14.504 71.2171 14.336 70.4651 14.336H69.9011C69.1731 14.336 68.6491 14.5 68.3291 14.828C68.0171 15.156 67.8611 15.692 67.8611 16.436C67.8611 17.18 68.0171 17.716 68.3291 18.044C68.6491 18.372 69.1731 18.536 69.9011 18.536Z" fill="white"/>
</svg>
