<svg width="114" height="32" viewBox="0 0 114 32" fill="none" xmlns="http://www.w3.org/2000/svg">
<rect width="114" height="32" fill="#1AACFF"/>
<path d="M9.69358 11.6H11.4216V18.476H16.2576V20H9.69358V11.6ZM20.2489 12.968H21.4969C22.7129 12.968 23.5769 13.216 24.0889 13.712C24.6089 14.208 24.8689 15.084 24.8689 16.34V20H23.2729V18.716C22.8409 19.692 21.9049 20.18 20.4649 20.18H20.0809C17.8729 20.18 16.7689 19.4 16.7689 17.84C16.7689 17.136 17.0209 16.664 17.5249 16.424C18.0289 16.184 18.8289 16.064 19.9249 16.064H23.2609C23.2289 15.392 23.0729 14.924 22.7929 14.66C22.5209 14.396 22.0329 14.264 21.3289 14.264H20.2249C19.0729 14.264 18.4969 14.652 18.4969 15.428H16.9369C16.9369 14.588 17.2049 13.968 17.7409 13.568C18.2849 13.168 19.1209 12.968 20.2489 12.968ZM20.0689 18.968H20.9809C21.7329 18.968 22.2929 18.812 22.6609 18.5C23.0289 18.18 23.2289 17.648 23.2609 16.904H20.0809C19.4489 16.904 19.0009 16.972 18.7369 17.108C18.4729 17.236 18.3409 17.48 18.3409 17.84C18.3409 18.592 18.9169 18.968 20.0689 18.968ZM30.5867 12.98H30.8027C31.9387 12.98 32.7547 13.232 33.2507 13.736C33.7467 14.24 33.9947 15.124 33.9947 16.388V20.012H32.3987V16.388C32.3987 15.628 32.2627 15.096 31.9907 14.792C31.7267 14.488 31.2187 14.336 30.4667 14.336H29.8667C29.1067 14.336 28.5427 14.512 28.1747 14.864C27.8147 15.208 27.6347 15.784 27.6347 16.592V20H26.0267V13.148H27.4667V14.648C27.9547 13.536 28.9947 12.98 30.5867 12.98ZM41.3805 14.288V11H42.9885V20H41.3805V18.872C40.8525 19.752 39.9045 20.192 38.5365 20.192H38.3205C37.2005 20.192 36.3725 19.924 35.8365 19.388C35.3085 18.852 35.0445 17.916 35.0445 16.58C35.0445 15.244 35.3085 14.308 35.8365 13.772C36.3725 13.236 37.2005 12.968 38.3205 12.968H38.5365C39.9045 12.968 40.8525 13.408 41.3805 14.288ZM38.6445 18.824H39.2205C39.9645 18.824 40.5085 18.652 40.8525 18.308C41.2045 17.956 41.3805 17.38 41.3805 16.58C41.3805 15.78 41.2045 15.208 40.8525 14.864C40.5085 14.512 39.9645 14.336 39.2205 14.336H38.6445C37.9005 14.336 37.3725 14.508 37.0605 14.852C36.7565 15.188 36.6045 15.764 36.6045 16.58C36.6045 17.396 36.7565 17.976 37.0605 18.32C37.3725 18.656 37.9005 18.824 38.6445 18.824ZM45.0743 12.296H44.7983C44.4783 12.296 44.2463 12.232 44.1023 12.104C43.9663 11.968 43.8983 11.744 43.8983 11.432C43.8983 11.128 43.9663 10.912 44.1023 10.784C44.2463 10.656 44.4783 10.592 44.7983 10.592H45.0743C45.3943 10.592 45.6263 10.656 45.7703 10.784C45.9143 10.912 45.9863 11.128 45.9863 11.432C45.9863 11.744 45.9143 11.968 45.7703 12.104C45.6263 12.232 45.3943 12.296 45.0743 12.296ZM45.7463 20H44.1383V13.148H45.7463V20ZM51.4611 12.98H51.6771C52.8131 12.98 53.6291 13.232 54.1251 13.736C54.6211 14.24 54.8691 15.124 54.8691 16.388V20.012H53.2731V16.388C53.2731 15.628 53.1371 15.096 52.8651 14.792C52.6011 14.488 52.0931 14.336 51.3411 14.336H50.7411C49.9811 14.336 49.4171 14.512 49.0491 14.864C48.6891 15.208 48.5091 15.784 48.5091 16.592V20H46.9011V13.148H48.3411V14.648C48.8291 13.536 49.8691 12.98 51.4611 12.98ZM62.2549 14.24V13.148H63.8629V19.328C63.8629 20.496 63.6189 21.296 63.1309 21.728C62.6429 22.168 61.8189 22.388 60.6589 22.388H56.3989V21.02H60.6589C61.2829 21.02 61.7029 20.9 61.9189 20.66C62.1429 20.428 62.2549 19.984 62.2549 19.328V18.632C61.7189 19.48 60.7669 19.904 59.3989 19.904H59.1829C58.0789 19.904 57.2589 19.644 56.7229 19.124C56.1869 18.604 55.9189 17.708 55.9189 16.436C55.9189 15.164 56.1869 14.268 56.7229 13.748C57.2589 13.228 58.0789 12.968 59.1829 12.968H59.3989C60.7669 12.968 61.7189 13.392 62.2549 14.24ZM59.5189 18.536H60.0829C60.8349 18.536 61.3829 18.372 61.7269 18.044C62.0789 17.708 62.2549 17.172 62.2549 16.436C62.2549 15.7 62.0789 15.168 61.7269 14.84C61.3829 14.504 60.8349 14.336 60.0829 14.336H59.5189C58.7909 14.336 58.2669 14.5 57.9469 14.828C57.6349 15.156 57.4789 15.692 57.4789 16.436C57.4789 17.18 57.6349 17.716 57.9469 18.044C58.2669 18.372 58.7909 18.536 59.5189 18.536ZM74.4783 11.6C75.4943 11.6 76.2223 11.812 76.6623 12.236C77.1103 12.66 77.3343 13.416 77.3343 14.504C77.3343 15.592 77.1143 16.348 76.6743 16.772C76.2343 17.188 75.5023 17.396 74.4783 17.396H70.0983V20H68.3703V11.6H74.4783ZM70.0983 15.92H74.0943C74.6383 15.92 75.0263 15.82 75.2583 15.62C75.4903 15.412 75.6063 15.04 75.6063 14.504C75.6063 13.976 75.4903 13.608 75.2583 13.4C75.0263 13.184 74.6383 13.076 74.0943 13.076H70.0983V15.92ZM81.41 12.968H82.658C83.874 12.968 84.738 13.216 85.25 13.712C85.77 14.208 86.03 15.084 86.03 16.34V20H84.434V18.716C84.002 19.692 83.066 20.18 81.626 20.18H81.242C79.034 20.18 77.93 19.4 77.93 17.84C77.93 17.136 78.182 16.664 78.686 16.424C79.19 16.184 79.99 16.064 81.086 16.064H84.422C84.39 15.392 84.234 14.924 83.954 14.66C83.682 14.396 83.194 14.264 82.49 14.264H81.386C80.234 14.264 79.658 14.652 79.658 15.428H78.098C78.098 14.588 78.366 13.968 78.902 13.568C79.446 13.168 80.282 12.968 81.41 12.968ZM81.23 18.968H82.142C82.894 18.968 83.454 18.812 83.822 18.5C84.19 18.18 84.39 17.648 84.422 16.904H81.242C80.61 16.904 80.162 16.972 79.898 17.108C79.634 17.236 79.502 17.48 79.502 17.84C79.502 18.592 80.078 18.968 81.23 18.968ZM93.4038 14.24V13.148H95.0118V19.328C95.0118 20.496 94.7678 21.296 94.2798 21.728C93.7918 22.168 92.9678 22.388 91.8078 22.388H87.5478V21.02H91.8078C92.4318 21.02 92.8518 20.9 93.0678 20.66C93.2918 20.428 93.4038 19.984 93.4038 19.328V18.632C92.8678 19.48 91.9158 19.904 90.5478 19.904H90.3318C89.2278 19.904 88.4078 19.644 87.8718 19.124C87.3358 18.604 87.0678 17.708 87.0678 16.436C87.0678 15.164 87.3358 14.268 87.8718 13.748C88.4078 13.228 89.2278 12.968 90.3318 12.968H90.5478C91.9158 12.968 92.8678 13.392 93.4038 14.24ZM90.6678 18.536H91.2318C91.9838 18.536 92.5318 18.372 92.8758 18.044C93.2278 17.708 93.4038 17.172 93.4038 16.436C93.4038 15.7 93.2278 15.168 92.8758 14.84C92.5318 14.504 91.9838 14.336 91.2318 14.336H90.6678C89.9398 14.336 89.4158 14.5 89.0958 14.828C88.7838 15.156 88.6278 15.692 88.6278 16.436C88.6278 17.18 88.7838 17.716 89.0958 18.044C89.4158 18.372 89.9398 18.536 90.6678 18.536ZM104.298 16.136V17.024H97.6135C97.6615 17.696 97.8455 18.168 98.1655 18.44C98.4935 18.712 99.0295 18.848 99.7735 18.848H100.758C102.07 18.848 102.726 18.412 102.726 17.54H104.298C104.298 18.476 104.006 19.152 103.422 19.568C102.838 19.976 101.95 20.18 100.758 20.18H99.5935C98.3215 20.18 97.4095 19.92 96.8575 19.4C96.3135 18.872 96.0415 17.932 96.0415 16.58C96.0415 15.228 96.3175 14.288 96.8695 13.76C97.4215 13.232 98.3295 12.968 99.5935 12.968H100.758C101.966 12.968 102.858 13.204 103.434 13.676C104.01 14.148 104.298 14.968 104.298 16.136ZM97.6135 16.136H102.726C102.726 15.464 102.558 14.992 102.222 14.72C101.894 14.44 101.354 14.3 100.602 14.3H99.7735C99.0215 14.3 98.4855 14.44 98.1655 14.72C97.8455 14.992 97.6615 15.464 97.6135 16.136Z" fill="white"/>
</svg>
