<svg width="88" height="32" viewBox="0 0 88 32" fill="none" xmlns="http://www.w3.org/2000/svg">
<rect width="88" height="32" fill="#FF5722"/>
<path d="M19.4618 18.476L21.6098 11.6H23.4098L20.6978 20H18.4778L16.2578 13.316L13.9898 20H11.7698L9.09383 11.6H10.8938L13.0178 18.476L15.3458 11.6H17.1578L19.4618 18.476ZM31.5857 16.136V17.024H24.9017C24.9497 17.696 25.1337 18.168 25.4537 18.44C25.7817 18.712 26.3177 18.848 27.0617 18.848H28.0457C29.3577 18.848 30.0137 18.412 30.0137 17.54H31.5857C31.5857 18.476 31.2937 19.152 30.7097 19.568C30.1257 19.976 29.2377 20.18 28.0457 20.18H26.8817C25.6097 20.18 24.6977 19.92 24.1457 19.4C23.6017 18.872 23.3297 17.932 23.3297 16.58C23.3297 15.228 23.6057 14.288 24.1577 13.76C24.7097 13.232 25.6177 12.968 26.8817 12.968H28.0457C29.2537 12.968 30.1457 13.204 30.7217 13.676C31.2977 14.148 31.5857 14.968 31.5857 16.136ZM24.9017 16.136H30.0137C30.0137 15.464 29.8457 14.992 29.5097 14.72C29.1817 14.44 28.6417 14.3 27.8897 14.3H27.0617C26.3097 14.3 25.7737 14.44 25.4537 14.72C25.1337 14.992 24.9497 15.464 24.9017 16.136ZM37.0746 12.968H37.2906C38.4106 12.968 39.2346 13.236 39.7626 13.772C40.2986 14.308 40.5666 15.244 40.5666 16.58C40.5666 17.916 40.2986 18.852 39.7626 19.388C39.2346 19.924 38.4106 20.192 37.2906 20.192H37.0746C35.7066 20.192 34.7586 19.752 34.2306 18.872V20H32.6226V11H34.2306V14.288C34.7586 13.408 35.7066 12.968 37.0746 12.968ZM36.3906 18.824H36.9666C37.7106 18.824 38.2346 18.656 38.5386 18.32C38.8506 17.976 39.0066 17.396 39.0066 16.58C39.0066 15.764 38.8506 15.188 38.5386 14.852C38.2346 14.508 37.7106 14.336 36.9666 14.336H36.3906C35.6466 14.336 35.0986 14.512 34.7466 14.864C34.4026 15.208 34.2306 15.78 34.2306 16.58C34.2306 17.38 34.4026 17.956 34.7466 18.308C35.0986 18.652 35.6466 18.824 36.3906 18.824ZM44.6324 15.956H46.3724C46.8364 15.956 47.2244 15.968 47.5364 15.992C47.8564 16.016 48.1644 16.068 48.4604 16.148C48.7644 16.228 49.0044 16.336 49.1804 16.472C49.3564 16.608 49.4964 16.796 49.6004 17.036C49.7044 17.268 49.7564 17.552 49.7564 17.888C49.7564 18.616 49.4644 19.18 48.8804 19.58C48.2964 19.98 47.4444 20.18 46.3244 20.18H44.8844C43.7164 20.18 42.8484 19.996 42.2804 19.628C41.7204 19.252 41.4404 18.624 41.4404 17.744H43.0124C43.0124 18.152 43.1484 18.452 43.4204 18.644C43.6924 18.828 44.1244 18.92 44.7164 18.92H46.3964C47.5964 18.92 48.1964 18.6 48.1964 17.96C48.1964 17.656 48.0484 17.448 47.7524 17.336C47.4644 17.216 47.0324 17.156 46.4564 17.156H44.7884C43.6924 17.156 42.8884 17.016 42.3764 16.736C41.8644 16.448 41.6084 15.92 41.6084 15.152C41.6084 13.672 42.7404 12.932 45.0044 12.932H46.2404C47.4324 12.932 48.2964 13.112 48.8324 13.472C49.3684 13.832 49.6364 14.44 49.6364 15.296H48.0644C48.0644 14.552 47.5124 14.18 46.4084 14.18H44.8604C43.7484 14.18 43.1924 14.504 43.1924 15.152C43.1924 15.688 43.6724 15.956 44.6324 15.956ZM51.6936 12.296H51.4176C51.0976 12.296 50.8656 12.232 50.7216 12.104C50.5856 11.968 50.5176 11.744 50.5176 11.432C50.5176 11.128 50.5856 10.912 50.7216 10.784C50.8656 10.656 51.0976 10.592 51.4176 10.592H51.6936C52.0136 10.592 52.2456 10.656 52.3896 10.784C52.5336 10.912 52.6056 11.128 52.6056 11.432C52.6056 11.744 52.5336 11.968 52.3896 12.104C52.2456 12.232 52.0136 12.296 51.6936 12.296ZM52.3656 20H50.7576V13.148H52.3656V20ZM58.6685 17.48H60.2285C60.2285 18.352 59.9605 19.02 59.4245 19.484C58.8965 19.948 58.1565 20.18 57.2045 20.18H57.0485C56.0965 20.18 55.3645 19.96 54.8525 19.52C54.3405 19.08 54.0845 18.352 54.0845 17.336V14.348H53.1245V13.148H54.0845V11.6H55.6805V13.148H60.0485V14.348H55.6805V17.336C55.6805 18.344 56.1685 18.848 57.1445 18.848H57.2285C57.6765 18.848 58.0285 18.732 58.2845 18.5C58.5405 18.268 58.6685 17.928 58.6685 17.48ZM69.224 16.136V17.024H62.54C62.588 17.696 62.772 18.168 63.092 18.44C63.42 18.712 63.956 18.848 64.7 18.848H65.684C66.996 18.848 67.652 18.412 67.652 17.54H69.224C69.224 18.476 68.932 19.152 68.348 19.568C67.764 19.976 66.876 20.18 65.684 20.18H64.52C63.248 20.18 62.336 19.92 61.784 19.4C61.24 18.872 60.968 17.932 60.968 16.58C60.968 15.228 61.244 14.288 61.796 13.76C62.348 13.232 63.256 12.968 64.52 12.968H65.684C66.892 12.968 67.784 13.204 68.36 13.676C68.936 14.148 69.224 14.968 69.224 16.136ZM62.54 16.136H67.652C67.652 15.464 67.484 14.992 67.148 14.72C66.82 14.44 66.28 14.3 65.528 14.3H64.7C63.948 14.3 63.412 14.44 63.092 14.72C62.772 14.992 62.588 15.464 62.54 16.136ZM73.2969 15.956H75.0369C75.5009 15.956 75.8889 15.968 76.2009 15.992C76.5209 16.016 76.8289 16.068 77.1249 16.148C77.4289 16.228 77.6689 16.336 77.8449 16.472C78.0209 16.608 78.1609 16.796 78.2649 17.036C78.3689 17.268 78.4209 17.552 78.4209 17.888C78.4209 18.616 78.1289 19.18 77.5449 19.58C76.9609 19.98 76.1089 20.18 74.9889 20.18H73.5489C72.3809 20.18 71.5129 19.996 70.9449 19.628C70.3849 19.252 70.1049 18.624 70.1049 17.744H71.6769C71.6769 18.152 71.8129 18.452 72.0849 18.644C72.3569 18.828 72.7889 18.92 73.3809 18.92H75.0609C76.2609 18.92 76.8609 18.6 76.8609 17.96C76.8609 17.656 76.7129 17.448 76.4169 17.336C76.1289 17.216 75.6969 17.156 75.1209 17.156H73.4529C72.3569 17.156 71.5529 17.016 71.0409 16.736C70.5289 16.448 70.2729 15.92 70.2729 15.152C70.2729 13.672 71.4049 12.932 73.6689 12.932H74.9049C76.0969 12.932 76.9609 13.112 77.4969 13.472C78.0329 13.832 78.3009 14.44 78.3009 15.296H76.7289C76.7289 14.552 76.1769 14.18 75.0729 14.18H73.5249C72.4129 14.18 71.8569 14.504 71.8569 15.152C71.8569 15.688 72.3369 15.956 73.2969 15.956Z" fill="white"/>
</svg>
